<svg width="500" height="500" viewBox="0 0 500 500" fill="none" xmlns="http://www.w3.org/2000/svg">
<rect width="500" height="500" fill="white"/>
<path d="M223.399 143.417C222.836 142.355 228.9 141.776 229.977 141.776C231.168 141.921 226.825 149.046 223.399 143.417ZM188.788 94.0089L190.525 93.5103C191.554 94.3949 189.367 95.0383 189.705 95.6977C191.088 98.1906 190.043 99.6863 189.833 101.037C189.608 102.404 188.161 101.809 187.437 102.533C186.585 103.595 191.587 103.739 191.651 103.9C191.828 104.431 185.62 105.332 186.762 106.65C188.306 108.838 200.014 103.514 198.149 103.82C201.767 102.002 198.615 101.809 196.588 100.764C195.897 97.306 195.318 91.9663 193.163 89.8273L194.578 88.1868C191.265 83.3778 188.788 94.0089 188.788 94.0089V94.0089ZM398 205C398 311.584 311.584 398 205 398C98.3997 398 12 311.584 12 205C12 98.4158 98.3997 12 205 12C311.584 12 398 98.4158 398 205ZM264.348 118.616C264.251 116.268 261.292 114.049 258.204 118.118C256.032 120.916 256.418 125.178 255.244 127.076C253.572 129.891 264.364 132.529 264.364 129.875C264.766 125.42 276.137 128.862 278.356 129.473C282.345 130.582 288.698 125.838 281.75 123.345C276.04 121.254 273.033 119.019 272.518 114.933C272.518 114.933 275.542 112.103 274.223 112.264C270.717 112.698 264.348 124.905 264.348 118.616V118.616ZM365.608 205C365.608 188.354 362.761 171.547 359.866 162.669C358.934 159.87 356.827 157.651 354.093 156.589C349.975 154.981 332.589 166.191 329.968 160.674C328.247 156.991 324.757 163.023 320.768 160.803C318.838 159.742 313.466 152.52 311.037 153.405C306.068 155.19 318.661 168.909 322.103 170.71C325.336 168.266 335.806 163.232 338.057 170.099C342.368 183.03 326.204 197.2 317.937 204.662C305.585 215.824 307.901 197.441 299.49 190.959C295.067 187.566 295.115 180.344 290.644 177.851C288.649 176.726 279.498 166.191 279.578 164.776L279.305 167.445C277.793 168.587 274.577 163.135 274.239 162.283C274.239 167.027 281.959 174.586 284.516 178.382C288.875 184.896 291.207 194.385 296.546 199.709C299.409 202.571 310.346 214.409 313.193 214.151C316.297 213.878 326.108 206.785 327.845 207.187C338.202 209.632 303.462 258.734 300.165 264.814C297.447 269.912 302.385 282.522 301.983 288.553C301.516 295.517 296.032 297.769 290.837 301.564C285.272 305.633 286.575 313.546 281.894 316.441C273.579 321.556 267.596 338.202 255.791 338.122C252.317 338.106 237.456 343.912 235.51 338.234C233.998 334.117 231.972 330.997 229.833 326.928C227.742 322.939 229.591 318.806 227.05 315.283C225.297 312.839 219.411 307.29 218.88 304.395C218.848 301.902 220.762 294.327 223.383 293.008C227.066 291.126 224.091 285.642 223.641 282.457C222.869 276.764 219.346 272.068 215.116 268.77C208.86 263.962 212.093 260.134 213.556 253.266C213.556 249.985 211.562 245.675 207.155 246.961C198.084 249.599 200.834 239.885 194.224 240.319C189.464 240.657 185.571 243.68 181.148 245.015C175.584 246.688 169.89 243.697 164.39 243.005C141.76 240.142 134.378 214.28 140.281 195.623C140.876 192.568 138.447 186.906 139.509 184.542C142.05 178.881 147.229 172.528 151.764 168.234C154.305 165.821 157.57 166.432 160.562 164.55C165.178 161.639 165.242 155.656 169.761 151.989C176.195 146.762 184.976 146.875 193.372 145.749C197.843 145.154 214.859 141.471 217.545 144.784C217.545 145.395 220.617 154.498 217.239 153.984C224.204 154.354 234.127 166.03 240.737 163.296C244.131 161.881 242.892 151.459 249.856 156.493C254.07 159.516 272.952 160.867 276.876 157.602C279.289 155.608 280.64 142.645 277.713 141.181C279.578 143.031 267.886 143.176 266.792 142.758C264.862 142.05 263.061 144.591 259.957 143.16C261.822 144.044 249.567 137.466 256.451 132.432C253.572 134.539 250.886 131.837 247.782 134.153C245.643 135.89 248.779 137.048 245.723 138.56C240.866 141.021 237.199 130.116 235.365 128.878C233.5 127.655 219.057 117.523 222.981 124.133L235.671 136.758C235.044 137.161 232.342 132.159 232.342 135.81C233.194 133.638 232.663 145.122 230.669 141.39C229.784 139.959 232.117 139.155 230.766 137.08C230.766 135.713 227.099 134.378 226.391 133.445C224.38 130.952 219.041 125.452 216.146 124.133C215.342 123.763 203.858 125.532 202.893 125.902C201.767 127.478 200.802 129.135 200.014 130.904C197.634 131.789 195.398 132.931 193.275 134.346L190.75 140.023C189.657 141.004 178.446 144.704 178.382 144.848C178.849 143.642 170.55 142.098 171.096 139.686C171.708 137.032 174.522 128.749 173.798 125.725C173.026 122.557 191.072 130.293 192.23 121.946C192.696 118.327 192.97 114.113 187.196 113.502C188.289 113.631 198.374 109.545 200.046 107.712C202.395 105.01 207.782 100.603 211.691 100.603C216.258 100.603 215.277 93.9607 217.384 90.7118C219.491 91.5643 216.258 96.7592 218.783 98.8661C218.623 97.2095 225.941 99.7828 226.648 99.3968C228.321 98.5283 237.649 99.043 236.202 94.6683C234.593 90.2133 237.022 91.5321 239.113 90.5993C238.759 90.744 244.581 80.6437 245.578 83.9568C244.887 80.5472 238.807 85.147 236.684 84.9701C231.779 84.5841 233.854 76.6068 235.703 74.2747C237.135 72.4251 231.795 70.1573 231.731 73.6957C231.634 78.9871 226.713 83.7799 227.854 90.8083C229.591 101.407 216.033 88.2511 214.843 88.9748C210.34 91.709 206.657 85.533 208.989 81.8338C211.369 78.0543 217.111 78.2312 219.475 74.1782C221.148 71.3153 223.094 67.9861 225.667 65.8148C234.272 58.5934 236.652 64.3673 245.224 65.1554C253.604 65.9274 248.055 67.1498 246.897 70.3664C245.787 73.4223 251.497 74.5159 253.475 71.9587C254.601 70.479 257.158 66.7638 258.268 64.0135C259.699 60.443 272.759 60.8451 263.64 55.3928C257.625 51.8063 231.409 44.5848 213.846 44.5848C210.05 44.5848 207.396 48.8148 204.501 51.2112C198.776 55.9558 184.108 65.268 175.954 62.4373C167.606 59.5584 149.738 73.0523 146.875 73.1488C145.829 73.2132 146.939 62.952 152.633 62.1961C150.172 62.566 172.689 50.8252 172.077 48.3805C171.338 45.4855 127.06 61.601 129.038 64.8338C129.987 66.3134 133.847 66.3134 128.781 69.5623C125.886 71.3153 122.798 82.445 120.08 82.445C111.958 85.9994 111.443 75.4488 102.404 89.0231L88.0259 94.8131C66.6673 117.507 51.8867 146.248 46.5309 178.173C46.3218 179.444 51.9028 181.808 52.6265 182.676C54.4278 184.832 54.4278 194.128 55.3124 197.167C57.5319 204.855 63.0163 209.133 67.2141 216.13C69.6909 220.295 73.8083 230.83 72.5055 235.205C74.2425 232.342 89.7147 248.312 92.5453 251.642C99.2038 259.474 104.334 268.963 93.5264 276.716C90.0363 279.225 98.8339 294.874 94.2984 298.718L88.4923 300.213C82.7667 303.736 85.3561 312.372 88.8301 316.007C118.07 346.582 159.275 365.656 204.952 365.656C293.684 365.656 365.608 293.732 365.608 205V205ZM180.537 102.758C182.548 101.874 185.25 101.906 185.539 99.2199C185.78 96.8396 186.247 98.4801 186.826 97.6116C187.389 96.7592 185.748 95.3921 185.057 95.2634C184.027 95.0383 183.32 96.3732 182.66 96.9361L181.502 97.2417L180.409 98.6409L180.537 99.4129L179.138 101.118C177.771 102.469 179.17 103.353 180.537 102.758V102.758Z" fill="black"/>
<ellipse cx="370.611" cy="370.611" rx="100.269" ry="101.492" fill="white"/>
<path d="M370 271.667C424.221 271.667 468.333 315.779 468.333 370C468.333 424.221 424.221 468.333 370 468.333C315.779 468.333 271.667 424.221 271.667 370C271.667 315.779 315.779 271.667 370 271.667ZM370 252C304.834 252 252 304.834 252 370C252 435.165 304.834 488 370 488C435.165 488 488 435.165 488 370C488 304.834 435.165 252 370 252ZM379.833 370V311H360.167V389.667H429V370H379.833Z" fill="black"/>
</svg>
